
        <svg xmlns="http://www.w3.org/2000/svg" xmlns:xlink="http://www.w3.org/1999/xlink" version="1.1" width="3162.3083859332733" 
        height="838.5950300132142" viewBox="0 0 3162.3083859332733 838.5950300132142">
			
			<g transform="scale(8.11541929666366) translate(10, 10)">
				<defs id="SvgjsDefs1001"></defs><g id="SvgjsG1007" featureKey="xG21Y3-0" transform="matrix(0.833337529521455,0,0,0.833337529521455,-0.00020841862403583677,-0.00020841862403583677)" fill="#e6e6e6"><path xmlns="http://www.w3.org/2000/svg" d="M98.169,1.831c-2.441-2.441-6.433-2.441-8.874,0L76.574,14.562  c-5.212-3.467-11.193-5.188-17.199-5.188c-7.996,0-16.095,3.052-22.095,9.155L18.53,37.28C7.837,47.961,6.519,64.478,14.551,76.6  L1.831,89.331c-2.441,2.441-2.441,6.396,0,8.838C3.052,99.39,4.651,100,6.25,100c1.6,0,3.198-0.61,4.419-1.831l12.72-12.731  c5.213,3.467,11.23,5.188,17.236,5.188c7.892,0,15.991-3.052,22.095-9.155l18.714-18.75C92.127,52.039,93.445,35.522,85.412,23.4  l12.757-12.731C100.61,8.228,100.61,4.272,98.169,1.831z M78.088,40.625c0,5.005-1.953,9.717-5.492,13.257l-18.714,18.75  c-3.552,3.54-8.355,5.493-13.257,5.493c-2.832,0-5.542-0.695-8.032-1.88l9.223-9.326c2.441-2.441,2.441-6.396,0-8.838  c-2.338-2.441-6.293-2.441-8.734,0l-9.326,9.326c-1.196-2.478-1.88-5.188-1.88-8.032c0-5.005,1.953-9.717,5.493-13.257l18.646-18.75  c3.54-3.54,8.355-5.493,13.36-5.493c2.832,0,5.529,0.695,8.02,1.88l-9.509,9.521c-2.441,2.441-2.441,6.396,0,8.838  c1.221,1.221,2.819,1.831,4.419,1.831c1.587,0,3.186-0.61,4.406-1.831l9.498-9.521C77.404,35.07,78.088,37.781,78.088,40.625z" fill="#e6e6e6"></path></g><g id="SvgjsG1008" featureKey="n48U4P-0" transform="matrix(3.4258292462411806,0,0,3.4258292462411806,100.39637062230929,-8.430961736832597)" fill="#fef9db"><path d="M7.78 5.38 c1.66666 0 3.06666 0.47 4.2 1.41 s1.78668 2.18334 1.96002 3.73 l-3.04 0 c-0.10666 -0.70666 -0.46 -1.3 -1.06 -1.78 s-1.28666 -0.72 -2.06 -0.72 c-1.22666 0 -2.18 0.44 -2.86 1.32 s-1.02 2.07334 -1.02 3.58 c0 1.46666 0.34334 2.63 1.03 3.49 s1.63666 1.29 2.85 1.29 c0.90666 0 1.64 -0.27666 2.2 -0.83 s0.90666 -1.34334 1.04 -2.37 l3.04 0 c-0.16 1.81334 -0.81 3.24 -1.95 4.28 s-2.58334 1.56 -4.33 1.56 c-2.09334 0 -3.78668 -0.69 -5.08002 -2.07 s-1.94 -3.16334 -1.94 -5.35 c0 -2.21334 0.64 -4.02334 1.92 -5.43 s2.98 -2.11 5.1 -2.11 z M18.82 5.72 l0 14.28 l-2.84 0 l0 -14.28 l2.84 0 z M23.98 5.72 l0 2.34 l-2.84 0 l0 -2.34 l2.84 0 z M23.98 9.66 l0 10.34 l-2.84 0 l0 -10.34 l2.84 0 z M30.42 9.38 c1.49334 0 2.53998 0.53334 3.13998 1.6 l0.04 0 l0 -1.32 l2.7 0 l0 13.98 l-2.84 0 l0 -4.94 l-0.04 0 c-0.30666 0.52 -0.75 0.91334 -1.33 1.18 s-1.22334 0.4 -1.93 0.4 c-0.81334 0 -1.55334 -0.21666 -2.22 -0.65 s-1.19332 -1.05 -1.57998 -1.85 s-0.58 -1.75334 -0.58 -2.86 c0 -1.64 0.42334 -2.97334 1.27 -4 s1.97 -1.54 3.37 -1.54 z M28.61998 14.84 c0 1.06666 0.21664 1.88336 0.64998 2.45002 s1.03668 0.85 1.81002 0.85 c0.8 0 1.41334 -0.28666 1.84 -0.86 s0.64 -1.37334 0.64 -2.4 c0 -1.05334 -0.22334 -1.87668 -0.67 -2.47002 s-1.03666 -0.89 -1.77 -0.89 c-0.78666 0 -1.4 0.3 -1.84 0.9 s-0.66 1.40666 -0.66 2.42 z M46.44 5.72 c1.2 0 2.19672 0.37 2.99006 1.11 s1.19 1.68334 1.19 2.83 c0 1.78666 -0.75334 2.98 -2.26 3.58 l0 0.04 c0.50666 0.14666 0.90332 0.39 1.18998 0.73 s0.50332 0.73666 0.64998 1.19 s0.24 1.18 0.28 2.18 c0.05334 1.30666 0.24 2.18 0.56 2.62 l-3.14 0 c-0.17334 -0.44 -0.30668 -1.26666 -0.40002 -2.48 c-0.10666 -1.28 -0.34 -2.11666 -0.7 -2.51 s-0.94666 -0.59 -1.76 -0.59 l-3.16 0 l0 5.58 l-3.14 0 l0 -14.28 l7.7 0 z M45.34006 12.18 c0.66666 0 1.19002 -0.15 1.57002 -0.45 s0.57 -0.83 0.57 -1.59 c0 -0.72 -0.18666 -1.23 -0.56 -1.53 s-0.90668 -0.45 -1.60002 -0.45 l-3.44 0 l0 4.02 l3.46 0 z M55.8 5.72 l0 2.34 l-2.84 0 l0 -2.34 l2.84 0 z M55.8 9.66 l0 10.34 l-2.84 0 l0 -10.34 l2.84 0 z M62.28 9.38 c1.38666 0 2.46992 0.28002 3.24992 0.84002 s1.21666 1.38 1.31 2.46 l-2.7 0 c-0.04 -0.49334 -0.22 -0.85 -0.54 -1.07 s-0.78666 -0.33 -1.4 -0.33 c-0.53334 0 -0.93 0.08 -1.19 0.24 s-0.39 0.4 -0.39 0.72 c0 0.24 0.08666 0.44 0.26 0.6 s0.43668 0.3 0.79002 0.42 s0.74334 0.22 1.17 0.3 c1.29334 0.25334 2.20668 0.51334 2.74002 0.78 s0.92334 0.58666 1.17 0.96 s0.37 0.83334 0.37 1.38 c0 1.16 -0.42334 2.05 -1.27 2.67 s-1.99666 0.93 -3.45 0.93 c-1.52 0 -2.70334 -0.32666 -3.55 -0.98 s-1.28332 -1.54 -1.30998 -2.66 l2.7 0 c0 0.53334 0.20666 0.95668 0.62 1.27002 s0.93334 0.47 1.56 0.47 c0.53334 0 0.97668 -0.11666 1.33002 -0.35 s0.53 -0.55668 0.53 -0.97002 c0 -0.26666 -0.11 -0.48666 -0.33 -0.66 s-0.53 -0.32668 -0.93 -0.46002 s-1.02 -0.28668 -1.86 -0.46002 c-0.66666 -0.13334 -1.26 -0.31334 -1.78 -0.54 s-0.91666 -0.52332 -1.19 -0.88998 s-0.41 -0.81666 -0.41 -1.35 c0 -0.68 0.16334 -1.27334 0.49 -1.78 s0.82666 -0.89 1.5 -1.15 s1.51 -0.39 2.51 -0.39 z M73.56 9.38 c0.97334 0 1.84004 0.22664 2.60004 0.67998 s1.35666 1.11 1.79 1.97 s0.65 1.85 0.65 2.97 c0 0.10666 -0.00666 0.28 -0.02 0.52 l-7.46 0 c0.02666 0.82666 0.24332 1.47 0.64998 1.93 s1.03 0.69 1.87 0.69 c0.52 0 0.99666 -0.13 1.43 -0.39 s0.71 -0.57666 0.83 -0.95 l2.5 0 c-0.73334 2.32 -2.34668 3.48 -4.84002 3.48 c-0.94666 -0.01334 -1.82332 -0.22 -2.62998 -0.62 s-1.45 -1.02334 -1.93 -1.87 s-0.72 -1.83 -0.72 -2.95 c0 -1.05334 0.24334 -2.01334 0.73 -2.88 s1.13332 -1.51332 1.93998 -1.93998 s1.67666 -0.64 2.61 -0.64 z M75.74004 13.71998 c-0.13334 -0.77334 -0.38 -1.33334 -0.74 -1.68 s-0.87334 -0.52 -1.54 -0.52 c-0.69334 0 -1.24 0.19666 -1.64 0.59 s-0.63334 0.93 -0.7 1.61 l4.62 0 z"></path></g>
			</g>
		</svg>
	